<svg xmlns="http://www.w3.org/2000/svg" width="720" height="1280" viewBox="0 0 720 1280" role="img" aria-labelledby="title desc">
  <title id="title">KernelPilot Agent Loop</title>
  <desc id="desc">A narrow vertical workflow diagram for the KernelPilot kernel optimization loop.</desc>
  <defs>
    <linearGradient id="hero" x1="0" y1="0" x2="1" y2="1">
      <stop offset="0%" stop-color="#0f172a"/>
      <stop offset="100%" stop-color="#0f766e"/>
    </linearGradient>
    <linearGradient id="green" x1="0" y1="0" x2="1" y2="1">
      <stop offset="0%" stop-color="#065f46"/>
      <stop offset="100%" stop-color="#0f766e"/>
    </linearGradient>
    <filter id="shadow" x="-8%" y="-8%" width="116%" height="124%">
      <feDropShadow dx="0" dy="8" stdDeviation="10" flood-color="#0f172a" flood-opacity="0.10"/>
    </filter>
    <marker id="arrow" viewBox="0 0 10 10" refX="8" refY="5" markerWidth="7" markerHeight="7" orient="auto-start-reverse">
      <path d="M 0 0 L 10 5 L 0 10 z" fill="#64748b"/>
    </marker>
    <marker id="arrowGreen" viewBox="0 0 10 10" refX="8" refY="5" markerWidth="7" markerHeight="7" orient="auto-start-reverse">
      <path d="M 0 0 L 10 5 L 0 10 z" fill="#059669"/>
    </marker>
    <style>
      text { font-family: Arial, Helvetica, sans-serif; }
      .bg { fill: #f8fafc; }
      .panel { fill: #ffffff; stroke: #d8e0ea; stroke-width: 1.4; filter: url(#shadow); }
      .card { fill: #ffffff; stroke: #cbd5e1; stroke-width: 1.3; filter: url(#shadow); }
      .soft { fill: #f8fafc; stroke: #d8e0ea; stroke-width: 1.2; }
      .blue { fill: #eff6ff; stroke: #3b82f6; stroke-width: 1.4; }
      .amber { fill: #fff7ed; stroke: #f97316; stroke-width: 1.4; }
      .purple { fill: #faf5ff; stroke: #a855f7; stroke-width: 1.4; }
      .mint { fill: #ecfdf5; stroke: #10b981; stroke-width: 1.4; }
      .title { font-size: 30px; font-weight: 800; fill: #0f172a; letter-spacing: 0; }
      .subtitle { font-size: 14px; font-weight: 500; fill: #64748b; }
      .section { font-size: 12px; font-weight: 800; fill: #475569; letter-spacing: 0.08em; }
      .label { font-size: 16px; font-weight: 800; fill: #0f172a; letter-spacing: 0; }
      .small { font-size: 12px; font-weight: 500; fill: #64748b; }
      .white { fill: #ffffff; }
      .whiteSub { fill: #ccfbf1; }
      .line { fill: none; stroke: #64748b; stroke-width: 2; marker-end: url(#arrow); }
      .lineSoft { fill: none; stroke: #94a3b8; stroke-width: 1.5; marker-end: url(#arrow); }
      .loop { fill: none; stroke: #059669; stroke-width: 2.4; marker-end: url(#arrowGreen); }
      .dash { fill: none; stroke: #94a3b8; stroke-width: 1.6; stroke-dasharray: 6 7; marker-end: url(#arrow); }
    </style>
  </defs>

  <rect width="720" height="1280" class="bg"/>
  <rect x="38" y="34" width="644" height="1212" rx="30" fill="#ffffff" stroke="#e2e8f0"/>

  <text x="360" y="86" text-anchor="middle" class="title">KernelPilot Agent Loop</text>
  <text x="360" y="114" text-anchor="middle" class="subtitle">Clean kernel experiments with correctness, benchmarks, and evidence only when it helps.</text>

  <rect x="84" y="152" width="552" height="226" rx="22" class="panel"/>
  <text x="112" y="188" class="section">FRAME THE TASK</text>
  <rect x="122" y="214" width="476" height="54" rx="14" fill="url(#hero)" filter="url(#shadow)"/>
  <text x="360" y="236" text-anchor="middle" class="label white">Kernel request</text>
  <text x="360" y="255" text-anchor="middle" class="small whiteSub">goal, target GPU, focused shape, success bar</text>

  <path d="M 360 268 L 360 294" class="lineSoft"/>
  <rect x="122" y="294" width="146" height="54" rx="14" class="purple"/>
  <text x="195" y="316" text-anchor="middle" class="label">K</text>
  <text x="195" y="335" text-anchor="middle" class="small">kernel target</text>
  <rect x="287" y="294" width="146" height="54" rx="14" class="purple"/>
  <text x="360" y="316" text-anchor="middle" class="label">R</text>
  <text x="360" y="335" text-anchor="middle" class="small">reference check</text>
  <rect x="452" y="294" width="146" height="54" rx="14" class="purple"/>
  <text x="525" y="316" text-anchor="middle" class="label">W</text>
  <text x="525" y="335" text-anchor="middle" class="small">workload cases</text>
  <path d="M 360 378 L 360 426" class="line"/>

  <rect x="114" y="426" width="492" height="96" rx="20" class="blue" filter="url(#shadow)"/>
  <text x="360" y="462" text-anchor="middle" class="label">Standalone optimization repo</text>
  <text x="360" y="486" text-anchor="middle" class="small">minimal bindings, tests, benchmark harness, ledgers, profile artifacts</text>
  <path d="M 360 522 L 360 568" class="line"/>

  <rect x="84" y="568" width="552" height="438" rx="22" class="panel"/>
  <text x="112" y="604" class="section">HUMANIZE RLCR LOOP</text>

  <rect x="126" y="632" width="306" height="62" rx="15" class="amber"/>
  <text x="279" y="656" text-anchor="middle" class="label">Write candidate</text>
  <text x="279" y="676" text-anchor="middle" class="small">kernel edit or design reset</text>

  <path d="M 432 663 L 488 663" class="lineSoft"/>
  <rect x="488" y="626" width="106" height="74" rx="18" class="mint"/>
  <text x="541" y="655" text-anchor="middle" class="label">Correct?</text>
  <text x="541" y="675" text-anchor="middle" class="small">compare R</text>
  <path d="M 541 700 C 541 734 444 735 360 716 C 284 699 203 711 203 694" class="loop"/>

  <path d="M 541 700 L 541 746" class="line"/>
  <rect x="388" y="746" width="206" height="62" rx="15" class="mint"/>
  <text x="491" y="771" text-anchor="middle" class="label">Benchmark on W</text>
  <text x="491" y="790" text-anchor="middle" class="small">latency, regimes, variance</text>

  <path d="M 388 777 L 330 777" class="lineSoft"/>
  <rect x="126" y="746" width="204" height="62" rx="15" class="blue"/>
  <text x="228" y="771" text-anchor="middle" class="label">Evidence?</text>
  <text x="228" y="790" text-anchor="middle" class="small">lookup or profile if useful</text>

  <rect x="126" y="854" width="306" height="62" rx="15" class="purple"/>
  <text x="279" y="879" text-anchor="middle" class="label">Stop hook review</text>
  <text x="279" y="898" text-anchor="middle" class="small">accept, revise, or continue the loop</text>
  <path d="M 228 808 L 228 854" class="line"/>
  <path d="M 432 885 C 552 888 595 825 491 808" class="loop"/>

  <rect x="458" y="842" width="136" height="118" rx="16" class="soft"/>
  <text x="526" y="866" text-anchor="middle" class="section">ON DEMAND</text>
  <text x="526" y="893" text-anchor="middle" class="small">KernelWiki</text>
  <text x="526" y="918" text-anchor="middle" class="small">ncu-report-skill</text>
  <text x="526" y="943" text-anchor="middle" class="small">Live upstream</text>
  <path d="M 330 777 C 410 808 424 858 458 880" class="dash"/>
  <path d="M 458 930 C 379 988 248 970 279 916" class="dash"/>

  <path d="M 279 916 C 279 970 360 969 360 1038" class="line"/>

  <rect x="84" y="1038" width="552" height="166" rx="22" fill="url(#green)" stroke="#0f766e" filter="url(#shadow)"/>
  <text x="360" y="1078" text-anchor="middle" class="label white">Package the result</text>
  <rect x="126" y="1104" width="138" height="54" rx="14" fill="#ecfeff" opacity="0.94"/>
  <text x="195" y="1126" text-anchor="middle" class="label">Map</text>
  <text x="195" y="1145" text-anchor="middle" class="small">shape regimes</text>
  <rect x="291" y="1104" width="138" height="54" rx="14" fill="#ecfeff" opacity="0.94"/>
  <text x="360" y="1126" text-anchor="middle" class="label">Decide</text>
  <text x="360" y="1145" text-anchor="middle" class="small">dispatch/tuning</text>
  <rect x="456" y="1104" width="138" height="54" rx="14" fill="#ecfeff" opacity="0.94"/>
  <text x="525" y="1126" text-anchor="middle" class="label">Ship</text>
  <text x="525" y="1145" text-anchor="middle" class="small">kernel + fallbacks</text>
  <text x="360" y="1186" text-anchor="middle" class="small whiteSub">correctness matrix / benchmark matrix / unsupported regimes</text>
</svg>
